<svg width="1200" height="250" viewBox="0 0 1200 250" fill="none" xmlns="http://www.w3.org/2000/svg">
<rect width="180" height="250" rx="12" fill="#D9D9D9"/>
<path d="M204 12C204 5.37258 209.373 0 216 0H372C378.627 0 384 5.37258 384 12V238C384 244.627 378.627 250 372 250H216C209.373 250 204 244.627 204 238V12Z" fill="#D9D9D9"/>
<path d="M408 12C408 5.37258 413.373 0 420 0H576C582.627 0 588 5.37258 588 12V238C588 244.627 582.627 250 576 250H420C413.373 250 408 244.627 408 238V12Z" fill="#D9D9D9"/>
<path d="M612 12C612 5.37258 617.373 0 624 0H780C786.627 0 792 5.37258 792 12V238C792 244.627 786.627 250 780 250H624C617.373 250 612 244.627 612 238V12Z" fill="#D9D9D9"/>
<path d="M816 12C816 5.37258 821.373 0 828 0H984C990.627 0 996 5.37258 996 12V238C996 244.627 990.627 250 984 250H828C821.373 250 816 244.627 816 238V12Z" fill="#D9D9D9"/>
<path d="M1020 12C1020 5.37258 1025.37 0 1032 0H1188C1194.63 0 1200 5.37258 1200 12V238C1200 244.627 1194.63 250 1188 250H1032C1025.37 250 1020 244.627 1020 238V12Z" fill="#D9D9D9"/>
</svg>
